# xmcd CD database file
#
# Track frame offsets:
#	150
#	16630
#	40922
#	51917
#	68292
#	80404
#	99678
#	111369
#	124481
#	140635
#	153626
#	172128
#	184910
#	200155
#	210375
#	226758
#	235836
#	245323
#	258043
#	272197
#
# Disc length: 3871 seconds
#
# Revision: 1
# Processed by: cddbd v1.5.1PL0 Copyright (c) Steve Scherf et al.
# Submitted via: CDex 1.40PlusFr
#
DISCID=1a0f1d14
DTITLE=Serge Reggiani - Succès et confidences
DYEAR=1965
DGENRE=Chanson
TTITLE0=Le petit garçon
TTITLE1=Les loups
TTITLE2=Il suffirait de presque rien
TTITLE3=Sarah (la femme qui est dans mon lit)
TTITLE4=Ma liberté
TTITLE5=Le déserteur (Vian)
TTITLE6=Le barbier de belleville
TTITLE7=Quand j'aurai du vent dans mon crâne (Vian)
TTITLE8=Et puis
TTITLE9=Votre fille a vingt ans
TTITLE10=Le vieux couple
TTITLE11=Ma solitude
TTITLE12=Ma fille
TTITLE13=La java des bombes atomiques
TTITLE14=La vieille
TTITLE15=Madame nostalgie
TTITLE16=Maxim's
TTITLE17=L'hôtel des rendez-moi-ça
TTITLE18=Sans blague
TTITLE19=Arthur, où t'as mis le corps
EXTD=YEAR: 1965 ID3G: 102
EXTT0=
EXTT1=
EXTT2=
EXTT3=
EXTT4=
EXTT5=
EXTT6=
EXTT7=
EXTT8=
EXTT9=
EXTT10=
EXTT11=
EXTT12=
EXTT13=
EXTT14=
EXTT15=
EXTT16=
EXTT17=
EXTT18=
EXTT19=
PLAYORDER=
